<?xml version="1.0" encoding="utf-8" standalone="yes"?><!-- Generator: Adobe Illustrator 19.1.0, SVG Export Plug-In . SVG Version: 6.00 Build 0)  --><svg xmlns="http://www.w3.org/2000/svg" xmlns:xlink="http://www.w3.org/1999/xlink" version="1.1" id="Layer_1" x="0px" y="0px" viewBox="194 896 108 72" style="enable-background:new 194 896 108 72;zoom: 1;" xml:space="preserve"><style type="text/css">
        .st0{fill:#FFFFFF;}
        .st1{fill:none;stroke:#FFFFFF;stroke-width:5.4819;stroke-linecap:round;stroke-linejoin:round;stroke-miterlimit:10;}
</style><path class="st0" d="M195.8,902.7 c0.5,-0.9 1.2,-1.3 2.1,-1.2 l86.2,0.1 c0.5,0 0.9,0.1 1.4,0.4 c0.4,0.3 0.7,0.7 0.8,1.1 c0.4,0.9 0.2,1.7 -0.6,2.6 l-51.7,53.8 c-0.6,0.5 -1.2,0.7 -1.9,0.7 c-0.4,-0.1 -0.8,-0.2 -1.1,-0.4 c-0.2,-0.2 -0.5,-0.4 -0.6,-0.6 L217,938.2 l-8.8,4.2 c-0.9,0.4 -1.7,0.3 -2.4,-0.2 c-0.7,-0.5 -1.1,-1.2 -1,-2.2 l1.9,-17.9 l-10.8,-16.8 C195.4,904.4 195.4,903.6 195.8,902.7 L195.8,902.7 M202.4,906.2 l8.3,13.1 c0,0.1 0.1,0.3 0.1,0.5 l0.1,0.3 l58,-13.7 L202.4,906.2 M211.4,922.4 l-1.4,13.6 l66.5,-29.1 L211.4,922.4 M220,934.4 c0.4,0.4 0.8,0.8 1,1.1 l11.7,18.4 L274,911 L220,934.4 L249.47139,926.4823"></path><line stroke="#000000" y1="915.888306px" id="line1" x1="212.392365px" stroke-width="3px" y2="915.888306px" x2="212.392365px" transform=""></line><g></g><text stroke="none" style="outline-style: none;" id="text1" stroke-width="1px" x="278.016388px" text-rendering="geometricPrecision" font-family="Helvetica" fill="#ffffff" font-size="32px" y="961.059998px" transform="" text-anchor="middle">LS</text><line stroke="#000000" y1="925.305176px" id="line2" x1="222.692093px" stroke-width="3px" y2="925.305176px" x2="222.692093px" transform=""></line></svg>