<?xml version="1.0" encoding="utf-8"?>
<!-- Generator: Adobe Illustrator 23.0.2, SVG Export Plug-In . SVG Version: 6.00 Build 0)  -->
<svg version="1.1" id="Layer_1" xmlns="http://www.w3.org/2000/svg" xmlns:xlink="http://www.w3.org/1999/xlink" x="0px" y="0px"
	 viewBox="0 0 72 72" style="enable-background:new 0 0 72 72;" xml:space="preserve">
<style type="text/css">
	.st0{fill:#1189D4;}
</style>
<g>
	<path d="M59.7,72H12.4C5.6,72,0,66.4,0,59.7V12.4C0,5.6,5.6,0,12.4,0h47.3C66.4,0,72,5.6,72,12.4v47.3C72,66.4,66.4,72,59.7,72z"/>
	<g>
		<path class="st0" d="M27.1,11.1c2,0,4,0,5.9,0C40,25,46.8,39,53.7,52.9c1.9,0,3.9,0,5.8,0C52.8,39.3,46.1,25.7,39.4,12
			c-0.2-0.3-0.3-0.6-0.4-0.9c2,0,4,0,6,0c4.5,9.1,9,18.3,13.4,27.4c3.2,6.5,6.4,13.1,9.6,19.6c-5.9,0-11.9,0-17.8,0
			c-5.8-12-11.7-23.9-17.6-35.8c-0.9-1.7-1.6-3.4-2.5-5.1C24.3,29.2,18.4,41,12.6,53c1.9,0,3.9,0,5.9,0C22.3,45,26.2,37.1,30,29.2
			c0.1,0.1,0.1,0.2,0.2,0.3c0.9,1.9,1.9,3.8,2.8,5.7c-1.2,2.6-2.5,5.1-3.8,7.7c2.5,0,4.9,0,7.4,0c0.2,0,0.2,0.2,0.3,0.3
			c0.8,1.6,1.6,3.2,2.4,4.9c-4.2,0-8.4,0-12.6,0c-1.7,3.3-3.3,6.7-4.9,10c-5.9,0-11.8,0-17.8,0C11.8,42.5,19.5,26.8,27.1,11.1z"/>
	</g>
</g>
</svg>
