<?xml version="1.0" standalone="yes"?><svg xmlns="http://www.w3.org/2000/svg" width="215" height="215" style="zoom: 1;"><style type="text/css">.st0{fill:#FFFFFF;} .st1{fill:#5ECBF1;} .st2{fill:none;stroke:#FFFFFF;stroke-width:8;stroke-miterlimit:10;}</style><g><title>background</title><rect fill="none" id="canvas_background" height="602" width="802" y="-1" x="-1"></rect></g><g><title>Layer 1</title><g id="svg_1"><path d="M212.5,151.5 c0,33 -27,60 -60,60 l-88,0 c-33,0 -60,-27 -60,-60 l0,-88 c0,-33 27,-60 60,-60 l88,0 c33,0 60,27 60,60 l0,88 " id="svg_2" class="st2"></path></g><path d="M82.716759,38.10001 c5.7,0 11.4,0 16.815001,0 c19.949999,39.615002 39.32999,79.514999 58.994991,119.129982 c5.415009,0 11.115009,0 16.530008,0 c-19.095009,-38.759998 -38.190006,-77.519989 -57.285,-116.564987 c-0.57,-0.855 -0.855,-1.71 -1.14,-2.565 c5.7,0 11.4,0 17.1,0 c12.825,25.934999 25.65,52.154991 38.189999,78.089989 c9.120009,18.525 18.24,37.334999 27.359999,55.859997 c-16.815001,0 -33.915009,0 -50.729988,0 c-16.530008,-34.200001 -33.345009,-68.114998 -50.160011,-102.029984 c-2.565,-4.845 -4.56,-9.69 -7.125,-14.535 c-16.529999,34.200001 -33.344997,67.830002 -49.875,102.030006 c5.415,0 11.115,0 16.815001,0 c10.83,-22.799999 21.945,-45.315018 32.774998,-67.830009 c0.285,0.285 0.285,0.57 0.57,0.855 c2.565,5.415 5.415,10.83 7.98,16.245001 c-3.420009,7.41 -7.125,14.535 -10.83,21.94499 c7.125,0 13.964999,0 21.09,0 c0.57,0 0.57,0.570009 0.855,0.855009 c2.28,4.56 4.56,9.120009 6.84,13.964999 c-11.97,0 -23.940001,0 -35.91,0 c-4.845,9.405009 -9.405,19.095009 -13.964999,28.5 c-16.815001,0 -33.630009,0 -50.73,0 c22.23,-44.459991 44.174999,-89.205009 65.834999,-133.949997 " id="path4" class="st0"></path></g></svg>